# xmcd
#
# Track frame offsets:
#	150
#	27348
#	38765
#	48155
#	58040
#	87793
#	100703
#	137870
#	175570
#	187165
#	228658
#	241185
#
# Disc length: 3581 seconds
#
# Revision: 4
# Processed by: cddbd v1.4PL0 Copyright (c) Steve Scherf et al.
# Submitted via: audiograbber 1.81.03
#
DISCID=960dfb0c
DTITLE=Johann Strauss - Johann Strauss - Wein, Weib und Gesang
DYEAR=1900
DGENRE=Instrumental
TTITLE0=Frühlingsstimmen op. 410
TTITLE1=Leichtes Blut op. 319
TTITLE2=Stürmisch in Lieb' und Tanz op. 393
TTITLE3=Furioso op.260
TTITLE4=Liebeslieder op. 114
TTITLE5=Tritsch-Tratsch-Polka op.214
TTITLE6=Freut Euch des Lebens op. 340
TTITLE7=Künstlerleben op. 316
TTITLE8=Banditen-Galopp op. 378
TTITLE9=Wiener Bonbons op. 307
TTITLE10=Perpetuum mobile op. 257
TTITLE11=Wein, Weib und Gesang op. 333
EXTD=
EXTT0=
EXTT1=
EXTT2=
EXTT3=
EXTT4=
EXTT5=
EXTT6=
EXTT7=
EXTT8=
EXTT9=
EXTT10=
EXTT11=
PLAYORDER=
